<svg xmlns="http://www.w3.org/2000/svg" version="1.1" xlink="http://www.w3.org/1999/xlink"
    xmlns:svgjs="http://svgjs.com/svgjs" class="svg-logo" width="50" height="50"
    viewBox="5.890999794006348 6.553999900817871 90.33963012695312 85.77799987792969">
    <g fill="#00eb75">
      <path
        d="M18.891 58.223h-13v28.332c0 3.11 2.555 5.555 5.555 5.555h28.332V81.442a7.23 7.23 0 0 1-3.446.89c-4 0-7.222-3.222-7.222-7.222s3.222-7.223 7.222-7.223c1.223 0 2.446.332 3.446.89V58.11H26.89c-.446 0-.89-.332-1.11-.778-.222-.445 0-1 .332-1.332 1-.89 1.668-2.223 1.668-3.668 0-2.668-2.222-4.89-4.89-4.89S18 49.664 18 52.332c0 1.445.554 2.777 1.667 3.668.332.332.445.778.332 1.332-.223.668-.668.89-1.11.89z">
      </path>
      <path
        d="M45.668 34.223c-1.445 0-2.777.668-3.777 1.777-.336.332-.782.446-1.336.332-.446-.222-.778-.554-.778-1.11V22.11H11.445c-3.109 0-5.554 2.555-5.554 5.555v28.332h10.668a7.23 7.23 0 0 1-.89-3.446c0-4 3.222-7.222 7.222-7.222 4 .004 7.11 3.226 7.11 7.226a7.186 7.186 0 0 1-.891 3.446h10.668V42.89c0-.445.332-.89.777-1.109.445-.223 1 0 1.332.332.89 1.11 2.332 1.777 3.777 1.777 2.668 0 4.89-2.222 4.89-4.89s-2.222-4.777-4.886-4.777zm24.887 58.109c3.11 0 5.555-2.555 5.555-5.555V58.332H65.442c.554 1 .89 2.223.89 3.446 0 4-3.222 7.222-7.222 7.222s-7.223-3.222-7.223-7.222c0-1.223.332-2.446.89-3.446H42.11v13.11c0 .445-.332.89-.778 1.109-.445.222-1 0-1.332-.332-.89-1.11-2.332-1.778-3.777-1.778-2.668 0-4.89 2.223-4.89 4.891s2.222 4.89 4.89 4.89c1.445 0 2.777-.667 3.777-1.777.332-.332.778-.554 1.332-.332.446.223.778.555.778 1.11v13.109zM72.777 46l12.109 5 10.891-26.223c1.223-2.89-.11-6.11-3-7.332L66.554 6.554l-4.11 9.89c1.223-.109 2.446 0 3.555.555 3.668 1.555 5.446 5.778 3.89 9.446-1.554 3.668-5.776 5.445-9.444 3.89-1.11-.445-2.11-1.223-2.891-2.11l-4.11 9.891L65.555 43c.445.223.777.668.668 1.11 0 .445-.332.89-.778 1.109a4.947 4.947 0 0 0-3 2.777c-1 2.446.11 5.332 2.668 6.332 2.446 1 5.332-.11 6.332-2.668a4.83 4.83 0 0 0-.222-4.11 1.18 1.18 0 0 1 .222-1.331A1.186 1.186 0 0 1 72.777 46z">
      </path>
    </g>
</svg>